<svg xmlns="http://www.w3.org/2000/svg" viewBox="0 0 128 128" width="128" height="128">
  <defs>
    <linearGradient id="tabGrad" x1="0%" y1="0%" x2="100%" y2="100%">
      <stop offset="0%" stop-color="#5EB3FF"/>
      <stop offset="100%" stop-color="#1976D2"/>
    </linearGradient>
  </defs>

  <rect x="16" y="44" width="72" height="56" rx="6" fill="#90CAF9" opacity="0.55"/>
  <rect x="28" y="34" width="72" height="60" rx="6" fill="#42A5F5" opacity="0.8"/>
  <rect x="40" y="24" width="72" height="72" rx="6" fill="url(#tabGrad)"/>

  <rect x="48" y="30" width="26" height="6" rx="2" fill="#FFFFFF" opacity="0.95"/>
  <rect x="78" y="30" width="18" height="6" rx="2" fill="#FFFFFF" opacity="0.55"/>

  <rect x="48" y="48" width="56" height="4" rx="2" fill="#FFFFFF" opacity="0.7"/>
  <rect x="48" y="58" width="46" height="4" rx="2" fill="#FFFFFF" opacity="0.55"/>
  <rect x="48" y="68" width="52" height="4" rx="2" fill="#FFFFFF" opacity="0.45"/>
  <rect x="48" y="78" width="38" height="4" rx="2" fill="#FFFFFF" opacity="0.35"/>

  <circle cx="106" cy="32" r="7" fill="#FF7043"/>
  <path d="M103 32 L105.5 34.5 L109.5 29.5" stroke="#FFFFFF" stroke-width="1.6" fill="none" stroke-linecap="round" stroke-linejoin="round"/>
</svg>
